<?xml version="1.0" encoding="UTF-8"?>
<svg xmlns="http://www.w3.org/2000/svg" xmlns:xlink="http://www.w3.org/1999/xlink" viewBox="0 0 25 25" width="25px" height="25px">
<g id="surface172501459">
<path style=" stroke:none;fill-rule:nonzero;fill:rgb(20.392157%,59.607846%,85.882354%);fill-opacity:1;" d="M 20.832031 6.25 C 20.832031 6.25 18.445312 4.382812 15.625 4.167969 L 15.371094 4.675781 C 17.921875 5.300781 19.089844 6.191406 20.3125 7.292969 C 18.207031 6.214844 16.125 5.207031 12.5 5.207031 C 8.875 5.207031 6.792969 6.214844 4.6875 7.292969 C 5.910156 6.191406 7.300781 5.199219 9.628906 4.675781 L 9.375 4.167969 C 6.417969 4.445312 4.167969 6.25 4.167969 6.25 C 4.167969 6.25 1.5 10.117188 1.042969 17.707031 C 3.730469 20.808594 7.8125 20.832031 7.8125 20.832031 L 8.667969 19.695312 C 7.21875 19.191406 5.582031 18.292969 4.167969 16.667969 C 5.851562 17.941406 8.398438 19.269531 12.5 19.269531 C 16.601562 19.269531 19.148438 17.941406 20.832031 16.667969 C 19.417969 18.292969 17.78125 19.191406 16.332031 19.695312 L 17.1875 20.832031 C 17.1875 20.832031 21.269531 20.808594 23.957031 17.707031 C 23.5 10.117188 20.832031 6.25 20.832031 6.25 Z M 9.113281 15.625 C 8.109375 15.625 7.292969 14.691406 7.292969 13.542969 C 7.292969 12.390625 8.109375 11.457031 9.113281 11.457031 C 10.121094 11.457031 10.9375 12.390625 10.9375 13.542969 C 10.9375 14.691406 10.121094 15.625 9.113281 15.625 Z M 15.886719 15.625 C 14.878906 15.625 14.0625 14.691406 14.0625 13.542969 C 14.0625 12.390625 14.878906 11.457031 15.886719 11.457031 C 16.890625 11.457031 17.707031 12.390625 17.707031 13.542969 C 17.707031 14.691406 16.890625 15.625 15.886719 15.625 Z M 15.886719 15.625 "/>
</g>
</svg>
